name GIL08_xslow2Moments.mot
datacolumns 7
datarows 47
range 0.25833333 0.64166665
endheader

                time	          RHipMoment	          LHipMoment	         RKneeMoment	         LKneeMoment	        RAnkleMoment	        LAnkleMoment	
          0.25833333	        -64.08162689	        445.00207520	        -22.77200699	         88.88531494	         -9.81207085	        106.53467560	
          0.26666668	        -84.86502838	        425.70489502	        -16.25390053	         93.85328674	        -10.16642475	        114.25505829	
          0.27500001	        -95.41296387	        403.44689941	        -12.59379959	        100.71812439	        -10.23252106	        123.16192627	
          0.28333333	       -102.69758606	        382.48818970	        -10.59627342	        106.22830963	        -10.26222992	        131.03384399	
          0.29166666	        -96.96326447	        371.78372192	        -13.74170303	        107.15596008	        -10.50498295	        138.65220642	
          0.30000001	        -70.41307068	        362.95385742	        -23.89763832	        109.64260101	        -10.62755680	        145.01628113	
          0.30833334	        -46.36734772	        362.90646362	        -33.43449402	        106.65411377	        -10.42087460	        150.68492126	
          0.31666666	        -36.37868881	        364.63613892	        -37.92409897	        102.47108459	        -10.02275372	        154.81642151	
          0.32499999	        -35.76113892	        362.00427246	        -38.97492981	         97.89895630	         -9.68613529	        159.18316650	
          0.33333334	        -39.91006470	        352.61206055	        -39.27262115	         95.03786469	         -9.26132584	        164.59501648	
          0.34166667	        -48.54884720	        333.17333984	        -37.81505203	         94.51362610	         -9.04542351	        171.87918091	
          0.34999999	        -57.01729965	        304.74465942	        -36.54616547	         97.82482910	         -9.47267246	        179.56884766	
          0.35833335	        -59.32453156	        281.12246704	        -37.76651764	        100.04904175	         -9.42557144	        188.94209290	
          0.36666667	        -53.53039169	        265.76409912	        -40.06061554	        101.62226868	         -9.18841267	        198.31187439	
          0.37500000	        -49.32386780	        260.27609253	        -39.93067551	        100.52441406	         -9.62502575	        208.63618469	
          0.38333333	         -3.11132717	        254.27880859	        -51.66979218	        100.89652252	         -9.73692989	        218.35301208	
          0.39166665	         26.55300713	        246.17680359	        -60.74942017	        101.35338593	         -9.82426167	        228.25511169	
          0.40000001	        -28.47828674	        233.71159363	        -46.89934921	        103.45219421	        -10.10127163	        238.64978027	
          0.40833333	        -69.05877686	        217.93345642	        -37.39177704	        104.16838837	        -10.33721542	        251.32519531	
          0.41666669	        -79.33149719	        200.63334656	        -36.00877380	        103.17071533	        -11.15893459	        264.95123291	
          0.42500001	        -95.08754730	        191.47224426	        -32.23942566	         97.63901520	        -11.66473675	        279.89926147	
          0.43333334	        -99.23818970	        186.12216187	        -31.77490807	         91.44173431	        -11.67025280	        294.75442505	
          0.44166666	       -111.21958160	        182.55424500	        -28.06318474	         84.66566467	        -12.06284809	        309.96582031	
          0.44999999	        -81.80358124	        181.55593872	        -34.95438004	         77.25043488	        -12.36876392	        325.84140015	
          0.45833331	         -2.67476273	        180.01626587	        -58.45766830	         69.71709442	        -12.63183212	        344.29364014	
          0.46666667	         -1.49343908	        171.12472534	        -59.82017899	         67.34092712	        -12.97616863	        364.19219971	
          0.47499999	        -31.20591927	        159.62777710	        -52.30442429	         64.83689880	        -13.02034664	        384.89492798	
          0.48333335	        -28.95551491	        146.84114075	        -53.99277878	         61.61347580	        -13.19360161	        405.12191772	
          0.49166667	        -38.10631180	        135.63150024	        -50.96726990	         57.40692902	        -13.47145081	        425.60662842	
          0.50000000	        -36.73206711	        126.15908051	        -51.01580811	         53.80773544	        -13.61913109	        445.53463745	
          0.50833333	        -30.87654495	        125.56822968	        -52.91447830	         45.81505966	        -13.62440014	        465.45617676	
          0.51666665	        -33.47162628	        126.97772217	        -51.21464539	         37.92655945	        -13.47742271	        484.30627441	
          0.52499998	        -27.68292236	        125.87833405	        -51.11561966	         29.89333916	        -13.53499126	        503.14660645	
          0.53333330	          4.95340061	        116.22888184	        -59.21233368	         24.78703117	        -13.74596310	        520.68725586	
          0.54166663	         17.99218559	        102.81279755	        -61.52787399	         20.79084396	        -13.77990437	        537.39306641	
          0.55000001	        -23.41900826	         90.38637543	        -47.79660416	         18.07308769	        -13.79008770	        552.85028076	
          0.55833334	        -50.57834244	         84.97106171	        -39.57526016	         13.46021843	        -14.00249386	        567.45013428	
          0.56666666	        -54.85002136	         81.16716766	        -37.96856308	          8.50207043	        -14.17068100	        581.69842529	
          0.57499999	        -69.99420166	         76.04679871	        -31.10514450	          2.08628273	        -14.09733009	        598.30725098	
          0.58333337	        -78.33880615	         71.62408447	        -26.51091194	         -4.81328583	        -13.96528721	        615.84991455	
          0.59166670	        -79.51337433	         72.29787445	        -23.86319923	        -14.70562267	        -13.81717587	        635.17199707	
          0.60000002	        -49.73345566	         68.67304993	        -31.08465195	        -23.50227928	        -13.75224876	        654.94763184	
          0.60833335	        -13.64584160	         58.73347092	        -40.66096115	        -31.32479286	        -13.64733219	        675.90551758	
          0.61666667	        -34.69491577	         54.35147095	        -30.43660736	        -37.83578491	        -13.32540417	        696.22882080	
          0.62500000	        -40.70269394	         65.58061218	        -26.06104851	        -46.13751221	        -13.26824665	        716.18957520	
          0.63333333	        -11.81688881	         66.20288086	        -35.60955429	        -51.60897064	        -13.39601421	        735.59497070	
          0.64166665	        -27.00738716	         41.39223862	        -31.73571587	        -53.37263489	        -13.24426174	        755.26721191	
